<?xml version="1.0" ?><svg id="object" viewBox="0 0 32 32" xmlns="http://www.w3.org/2000/svg"><defs><style>.cls-1{fill:#f4dab7;}.cls-2{fill:#ecc5b4;}.cls-3{fill:#d6b5b0;}.cls-4{fill:#bf9e99;}.cls-5{fill:#ff9797;}.cls-6{fill:#e47979;}</style></defs><title/><rect class="cls-1" height="30" rx="1" ry="1" width="20" x="6" y="1"/><path class="cls-2" d="M25,1h-.12V28.88a1,1,0,0,1-1,1H6V30a1,1,0,0,0,1,1H25a1,1,0,0,0,1-1V2A1,1,0,0,0,25,1Z"/><rect class="cls-2" height="6" rx="1" ry="1" width="10" x="11.41" y="21.45"/><rect class="cls-3" height="6" rx="1" ry="1" width="10" x="11" y="21"/><path class="cls-4" d="M20.27,21.06a1,1,0,0,1,.11.42v4a1,1,0,0,1-1,1h-8a.88.88,0,0,1-.28-.06A1,1,0,0,0,12,27h8a1,1,0,0,0,1-1V22A1,1,0,0,0,20.27,21.06Z"/><circle class="cls-2" cx="16.33" cy="9.19" r="4"/><circle class="cls-5" cx="16" cy="9" r="4"/><path class="cls-6" d="M17.68,5.38a4,4,0,0,1-2.58,7A4,4,0,0,1,13.43,12,4,4,0,0,0,16,13a4,4,0,0,0,1.68-7.62Z"/></svg>