<?xml version="1.0" ?><!DOCTYPE svg  PUBLIC '-//W3C//DTD SVG 1.1//EN'  'http://www.w3.org/Graphics/SVG/1.1/DTD/svg11.dtd'><svg enable-background="new 0 0 32 32" version="1.1" viewBox="0 0 32 32" xml:space="preserve" xmlns="http://www.w3.org/2000/svg" xmlns:xlink="http://www.w3.org/1999/xlink"><g id="Files_Folder40"/><g id="Files_Folder39"/><g id="Files_Folder38"/><g id="Files_Folder37"/><g id="Files_Folder36"/><g id="Files_Folder35"/><g id="Files_Folder34"/><g id="Files_Folder33"/><g id="Files_Folder32"/><g id="Files_Folder31"/><g id="Files_Folder30"/><g id="Files_Folder29"/><g id="Files_Folder28"/><g id="Files_Folder27"/><g id="Files_Folder26"/><g id="Files_Folder25"/><g id="Files_Folder24"/><g id="Files_Folder23"/><g id="Files_Folder22"/><g id="Files_Folder21"/><g id="Files_Folder20"/><g id="Files_Folder19"/><g id="Files_Folder18"/><g id="Files_Folder17"/><g id="Files_Folder16"><g><path d="M19.22,6c0,0.56-0.43,1.02-1.0099,1H13v19c0,0.55-0.45,1-1,1H2c-0.55,0-1-0.45-1-1V2c0-0.55,0.45-1,1-1    h12.6c0.28,0,0.55,0.12,0.7401,0.33l3.5,3.88C19.07,5.4,19.22,5.68,19.22,6z" fill="#FE9803"/></g><g><path d="M31,12v18c0,0.55-0.45,1-1,1H12c-0.55,0-1-0.45-1-1V6c0-0.55,0.45-1,1-1h12.6    c0.28,0,0.55,0.12,0.7401,0.33l5.4,6C30.91,11.51,31,11.75,31,12z" fill="#FFC10A"/></g></g><g id="Files_Folder15"/><g id="Files_Folder14"/><g id="Files_Folder13"/><g id="Files_Folder12"/><g id="Files_Folder11"/><g id="Files_Folder10"/><g id="Files_Folder09"/><g id="Files_Folder08"/><g id="Files_Folder07"/><g id="Files_Folder06"/><g id="Files_Folder05"/><g id="Files_Folder04"/><g id="Files_Folder03"/><g id="Files_Folder02"/><g id="Files_Folder01"/></svg>