<?xml version="1.0" ?><!DOCTYPE svg  PUBLIC '-//W3C//DTD SVG 1.1//EN'  'http://www.w3.org/Graphics/SVG/1.1/DTD/svg11.dtd'><svg enable-background="new 0 0 32 32" version="1.1" viewBox="0 0 32 32" xml:space="preserve" xmlns="http://www.w3.org/2000/svg" xmlns:xlink="http://www.w3.org/1999/xlink"><g id="Security02"/><g id="Security03"/><g id="Security04"/><g id="Security05"/><g id="Security06"/><g id="Security07"/><g id="Security08"/><g id="Security09"><g><path d="M30.95,12.31C30.82,12.72,30.43,13,30,13h-3v17c0,0.55-0.45,1-1,1H6c-0.55,0-1-0.45-1-1V13H2    c-0.43,0-0.82-0.28-0.95-0.69c-0.13-0.42,0.01-0.87,0.37-1.12l14-10c0.35-0.25,0.81-0.25,1.16,0l14,10    C30.93,11.44,31.08,11.89,30.95,12.31z" fill="#2197F3"/></g><g><path d="M23,14.57C23,15,22.92,25,16,25S9,15,9,14.57c0-0.4,0.24-0.76,0.61-0.92l6-2.57    c0.25-0.11,0.53-0.11,0.78,0l6,2.57C22.76,13.81,23,14.17,23,14.57z" fill="#FFC10A"/></g></g><g id="Security10"/><g id="Security11"/><g id="Security12"/><g id="Security13"/><g id="Security14"/><g id="Security15"/><g id="Security16"/><g id="Security17"/><g id="Security18"/><g id="Security19"/><g id="Security20"/><g id="Security21"/></svg>