<?xml version="1.0" ?><!DOCTYPE svg  PUBLIC '-//W3C//DTD SVG 1.1//EN'  'http://www.w3.org/Graphics/SVG/1.1/DTD/svg11.dtd'><svg enable-background="new 0 0 32 32" version="1.1" viewBox="0 0 32 32" xml:space="preserve" xmlns="http://www.w3.org/2000/svg" xmlns:xlink="http://www.w3.org/1999/xlink"><g id="Home"/><g id="Print"/><g id="Mail"/><g id="Camera"/><g id="Video"/><g id="Film"/><g id="Message"/><g id="Telephone"/><g id="User"/><g id="File"/><g id="Folder"/><g id="Map"/><g id="Download"/><g id="Upload"/><g id="Video_Recorder"/><g id="Schedule"/><g id="Cart"/><g id="Setting"/><g id="Search"/><g id="Pencils"/><g id="Group"/><g id="Record"/><g id="Headphone"/><g id="Music_Player"/><g id="Sound_On"><path d="M18.6,5.2C18.3,5,18,5,17.7,5L5.8,9H2c-0.5,0-1,0.5-1,1v6v6c0,0.5,0.5,1,1,1h3.8l11.8,4c0.1,0,0.2,0,0.3,0   c0.2,0,0.4-0.1,0.6-0.2c0.3-0.2,0.4-0.5,0.4-0.8V16V6C19,5.7,18.8,5.4,18.6,5.2z" fill="#FFC10A"/><g><path d="M25.8,16c0.1-2.9-0.8-5.6-2.8-7.8c-0.4-0.4-1-0.5-1.4-0.1c-0.4,0.4-0.5,1-0.1,1.4c1.6,1.8,2.4,4.1,2.2,6.5    c0,0,0,0.1,0,0.1c-0.2,2.4-1.3,4.7-3.1,6.3c-0.4,0.4-0.5,1-0.1,1.4c0.2,0.2,0.5,0.3,0.8,0.3c0.2,0,0.5-0.1,0.7-0.3    c2.2-2,3.6-4.7,3.8-7.6C25.8,16.2,25.8,16.1,25.8,16z" fill="#673AB7"/><path d="M27.3,5.5c-0.4-0.4-1-0.5-1.4-0.1c-0.4,0.4-0.5,1-0.1,1.4c2.3,2.6,3.4,6,3.2,9.2c-0.2,3.4-1.7,6.7-4.4,9.1    c-0.4,0.4-0.5,1-0.1,1.4c0.2,0.2,0.5,0.3,0.8,0.3c0.2,0,0.5-0.1,0.7-0.3C29.1,23.8,30.8,20,31,16C31.1,12.3,29.9,8.5,27.3,5.5z" fill="#673AB7"/><path d="M5,10c0-0.4,0.3-0.8,0.7-1l0.2,0H2c-0.5,0-1,0.5-1,1v6v6c0,0.5,0.5,1,1,1h3.8l-0.2,0C5.3,22.8,5,22.4,5,22    v-6V10z" fill="#673AB7"/></g></g><g id="Sound_Off"/><g id="Lock"/><g id="Lock_open"/><g id="Love"/><g id="Favorite"/><g id="Film_1_"/><g id="Music"/><g id="Puzzle"/><g id="Turn_Off"/><g id="Book"/><g id="Save"/><g id="Reload"/><g id="Trash"/><g id="Tag"/><g id="Link"/><g id="Like"/><g id="Bad"/><g id="Gallery"/><g id="Add"/><g id="Close"/><g id="Forward"/><g id="Back"/><g id="Buy"/><g id="Mac"/><g id="Laptop"/></svg>